<svg width="41" height="41" viewBox="0 0 41 41" fill="none" xmlns="http://www.w3.org/2000/svg">
<g clip-path="url(#clip0_32_225)">
<path d="M3.50659 12.5505H9.68612C10.0097 12.5505 10.2721 12.2882 10.2721 11.9645C10.2721 11.6409 10.0097 11.3786 9.68612 11.3786H3.50659C3.183 11.3786 2.92065 11.6409 2.92065 11.9645C2.92065 12.2882 3.18292 12.5505 3.50659 12.5505Z" fill="#09A66D"/>
<path d="M9.47454 15.3713H7.03345C6.70985 15.3713 6.44751 15.6336 6.44751 15.9573C6.44751 16.2809 6.70985 16.5432 7.03345 16.5432H9.47454C9.79814 16.5432 10.0605 16.2809 10.0605 15.9573C10.0605 15.6336 9.79814 15.3713 9.47454 15.3713Z" fill="#09A66D"/>
<path d="M1.05566 19.4346H7.03316C7.35676 19.4346 7.6191 19.1723 7.6191 18.8486C7.6191 18.525 7.35676 18.2627 7.03316 18.2627H1.05566C0.73207 18.2627 0.469727 18.525 0.469727 18.8486C0.469727 19.1723 0.73207 19.4346 1.05566 19.4346Z" fill="#09A66D"/>
<path d="M10.2721 29.8222C10.2721 29.4986 10.0097 29.2363 9.68612 29.2363H3.50659C3.183 29.2363 2.92065 29.4986 2.92065 29.8222C2.92065 30.1459 3.183 30.4082 3.50659 30.4082H9.68612C10.0097 30.4082 10.2721 30.1459 10.2721 29.8222Z" fill="#09A66D"/>
<path d="M9.47454 25.2437H7.03345C6.70985 25.2437 6.44751 25.5059 6.44751 25.8296C6.44751 26.1533 6.70985 26.4155 7.03345 26.4155H9.47454C9.79814 26.4155 10.0605 26.1533 10.0605 25.8296C10.0605 25.5059 9.79814 25.2437 9.47454 25.2437Z" fill="#09A66D"/>
<path d="M7.6191 22.9382C7.6191 22.6145 7.35676 22.3522 7.03316 22.3522H1.05566C0.73207 22.3522 0.469727 22.6145 0.469727 22.9382C0.469727 23.2618 0.73207 23.5241 1.05566 23.5241H7.03316C7.35676 23.5241 7.6191 23.2618 7.6191 22.9382Z" fill="#09A66D"/>
<path d="M25.4329 13.8489C25.7565 13.8489 26.0188 13.5866 26.0188 13.263V12.3686C26.0188 12.0449 25.7565 11.7827 25.4329 11.7827C25.1092 11.7827 24.8469 12.0449 24.8469 12.3686V13.263C24.8469 13.5866 25.1092 13.8489 25.4329 13.8489Z" fill="#09A66D"/>
<path d="M31.8754 14.4511C31.6465 14.2224 31.2755 14.2224 31.0467 14.4511L30.4143 15.0835C30.1855 15.3124 30.1855 15.6834 30.4143 15.9122C30.6433 16.141 31.0141 16.1409 31.243 15.9122L31.8754 15.2798C32.1041 15.0509 32.1041 14.68 31.8754 14.4511Z" fill="#09A66D"/>
<path d="M33.0627 20.3075C32.7391 20.3075 32.4768 20.5698 32.4768 20.8934C32.4768 21.2171 32.7391 21.4794 33.0627 21.4794H33.957C34.2807 21.4794 34.543 21.2171 34.543 20.8934C34.543 20.5698 34.2807 20.3075 33.957 20.3075H33.0627Z" fill="#09A66D"/>
<path d="M31.243 25.8746C31.0141 25.6458 30.6431 25.6458 30.4143 25.8746C30.1855 26.1035 30.1855 26.4744 30.4143 26.7032L31.0467 27.3357C31.2757 27.5645 31.6466 27.5644 31.8754 27.3357C32.1042 27.1068 32.1042 26.7358 31.8754 26.507L31.243 25.8746Z" fill="#09A66D"/>
<path d="M24.8469 28.5239V29.4182C24.8469 29.7418 25.1092 30.0041 25.4329 30.0041C25.7565 30.0041 26.0188 29.7418 26.0188 29.4182V28.5239C26.0188 28.2002 25.7565 27.9379 25.4329 27.9379C25.1092 27.9379 24.8469 28.2003 24.8469 28.5239Z" fill="#09A66D"/>
<path d="M19.6231 25.8746L18.9907 26.507C18.7619 26.7359 18.7619 27.1068 18.9907 27.3357C19.2196 27.5645 19.5906 27.5644 19.8193 27.3357L20.4517 26.7032C20.6805 26.4743 20.6805 26.1034 20.4517 25.8746C20.223 25.6458 19.852 25.6458 19.6231 25.8746Z" fill="#09A66D"/>
<path d="M16.9077 20.3075C16.5841 20.3075 16.3218 20.5698 16.3218 20.8934C16.3218 21.2171 16.5841 21.4794 16.9077 21.4794H17.8021C18.1257 21.4794 18.388 21.2171 18.388 20.8934C18.388 20.5698 18.1257 20.3075 17.8021 20.3075H16.9077Z" fill="#09A66D"/>
<path d="M20.4517 15.0835L19.8193 14.4511C19.5905 14.2224 19.2195 14.2224 18.9907 14.4511C18.7619 14.68 18.7619 15.0509 18.9907 15.2798L19.6231 15.9122C19.852 16.141 20.223 16.1409 20.4517 15.9122C20.6805 15.6834 20.6805 15.3124 20.4517 15.0835Z" fill="#09A66D"/>
<path d="M28.5836 20.8935C28.5836 20.5698 28.3214 20.3075 27.9977 20.3075H26.0188V15.9572C26.0188 15.6335 25.7565 15.3713 25.4329 15.3713C25.1092 15.3713 24.8469 15.6335 24.8469 15.9572V20.8935C24.8469 21.2171 25.1092 21.4794 25.4329 21.4794H27.9977C28.3213 21.4794 28.5836 21.2171 28.5836 20.8935Z" fill="#09A66D"/>
<path d="M36.5431 20.7967C36.8661 20.7771 37.1121 20.4994 37.0924 20.1764C36.7197 14.0277 31.5981 9.21124 25.4327 9.21124C18.9911 9.21124 13.7505 14.4519 13.7505 20.8935C13.7505 27.3351 18.9911 32.5757 25.4327 32.5757C31.2037 32.5757 36.128 28.3474 36.9846 22.6416C37.0327 22.3216 36.8122 22.0232 36.4921 21.9751C36.1729 21.9273 35.8738 22.1475 35.8257 22.4676C35.0562 27.5937 30.6299 31.4039 25.4327 31.4039C19.6373 31.4039 14.9224 26.689 14.9224 20.8936C14.9224 15.0982 19.6373 10.3832 25.4327 10.3832C30.9796 10.3832 35.5874 14.7161 35.9227 20.2475C35.9422 20.5703 36.2197 20.8155 36.5431 20.7967Z" fill="#09A66D"/>
<path d="M25.4331 5.85663C23.3721 5.85663 21.3528 6.28421 19.4942 7.08382H9.15601C8.83241 7.08382 8.57007 7.34608 8.57007 7.66975C8.57007 7.99343 8.83241 8.25569 9.15601 8.25569H17.2898C16.1901 8.9635 15.1776 9.81725 14.285 10.8029C14.0678 11.0426 14.0861 11.4132 14.3259 11.6305C14.5658 11.8477 14.9362 11.8294 15.1536 11.5895C17.7787 8.69093 21.5255 7.0285 25.4331 7.0285C33.0783 7.0285 39.2981 13.2483 39.2981 20.8934C39.2981 28.5385 33.0783 34.7584 25.4331 34.7584C17.788 34.7584 11.5682 28.5386 11.5682 20.8934C11.5682 18.2162 12.333 15.6178 13.7797 13.3789C13.9553 13.1071 13.8773 12.7444 13.6055 12.5688C13.3337 12.3933 12.9711 12.4711 12.7954 12.743C11.2258 15.1717 10.3963 17.9901 10.3963 20.8934C10.3963 26.1876 13.1468 30.8511 17.2936 33.5312H9.15608C8.83249 33.5312 8.57015 33.7934 8.57015 34.1171C8.57015 34.4408 8.83249 34.703 9.15608 34.703H19.4862C21.3112 35.492 23.3219 35.9302 25.4332 35.9302C33.7244 35.9302 40.47 29.1848 40.47 20.8934C40.47 12.6021 33.7244 5.85663 25.4331 5.85663Z" fill="#09A66D"/>
</g>
<defs>
<clipPath id="clip0_32_225">
<rect width="40" height="40" fill="white" transform="translate(0.469727 0.893433)"/>
</clipPath>
</defs>
</svg>
