<svg width="25" height="25" viewBox="0 0 25 25" fill="none" xmlns="http://www.w3.org/2000/svg">
<g clip-path="url(#clip0_32_105)">
<path d="M24.0772 7.84562C24.021 6.5704 23.8147 5.69371 23.5193 4.93404C23.2146 4.12767 22.7457 3.40572 22.1315 2.80557C21.5313 2.19608 20.8046 1.72247 20.0076 1.42249C19.2435 1.12708 18.3714 0.920863 17.0962 0.864639C15.8115 0.803653 15.4036 0.789551 12.1452 0.789551C8.88671 0.789551 8.47886 0.803653 7.19889 0.859877C5.92367 0.916101 5.04698 1.1225 4.28749 1.41773C3.48094 1.72247 2.75899 2.19131 2.15884 2.80557C1.54935 3.40572 1.07593 4.13243 0.775758 4.92946C0.480351 5.69371 0.274134 6.56564 0.21791 7.84085C0.156924 9.12559 0.142822 9.53345 0.142822 12.7919C0.142822 16.0503 0.156924 16.4582 0.213148 17.7382C0.269373 19.0134 0.475773 19.8901 0.77118 20.6498C1.07593 21.4561 1.54935 22.1781 2.15884 22.7782C2.75899 23.3877 3.4857 23.8613 4.28273 24.1613C5.04698 24.4567 5.91891 24.6629 7.19431 24.7192C8.4741 24.7756 8.88214 24.7895 12.1406 24.7895C15.399 24.7895 15.8069 24.7756 17.0869 24.7192C18.3621 24.6629 19.2388 24.4567 19.9983 24.1613C21.6112 23.5377 22.8864 22.2625 23.51 20.6498C23.8052 19.8855 24.0116 19.0134 24.0678 17.7382C24.1241 16.4582 24.1382 16.0503 24.1382 12.7919C24.1382 9.53345 24.1334 9.12559 24.0772 7.84562ZM21.9159 17.6444C21.8643 18.8165 21.6674 19.4494 21.5033 19.8714C21.1 20.917 20.2702 21.7468 19.2247 22.15C18.8027 22.3141 18.1652 22.511 16.9977 22.5625C15.7318 22.6189 15.3521 22.6328 12.1499 22.6328C8.9477 22.6328 8.56329 22.6189 7.30199 22.5625C6.12989 22.511 5.49695 22.3141 5.075 22.15C4.55469 21.9577 4.08109 21.653 3.69668 21.2545C3.29816 20.8653 2.99341 20.3965 2.80112 19.8762C2.63702 19.4542 2.44015 18.8165 2.38868 17.6492C2.33228 16.3833 2.31836 16.0035 2.31836 12.8012C2.31836 9.59901 2.33228 9.2146 2.38868 7.95349C2.44015 6.78138 2.63702 6.14845 2.80112 5.72649C2.99341 5.206 3.29816 4.73258 3.70144 4.34799C4.09043 3.94947 4.55927 3.64472 5.07976 3.45261C5.50172 3.28851 6.13941 3.09164 7.30676 3.03999C8.57263 2.98377 8.95246 2.96966 12.1545 2.96966C15.3615 2.96966 15.7411 2.98377 17.0024 3.03999C18.1745 3.09164 18.8075 3.28851 19.2294 3.45261C19.7497 3.64472 20.2233 3.94947 20.6077 4.34799C21.0063 4.73716 21.311 5.206 21.5033 5.72649C21.6674 6.14845 21.8643 6.78596 21.9159 7.95349C21.9722 9.21936 21.9863 9.59901 21.9863 12.8012C21.9863 16.0035 21.9722 16.3785 21.9159 17.6444Z" fill="#222222"/>
<path d="M12.1452 6.62646C8.74157 6.62646 5.97998 9.38787 5.97998 12.7917C5.97998 16.1956 8.74157 18.957 12.1452 18.957C15.5491 18.957 18.3105 16.1956 18.3105 12.7917C18.3105 9.38787 15.5491 6.62646 12.1452 6.62646ZM12.1452 16.791C9.93711 16.791 8.14599 15 8.14599 12.7917C8.14599 10.5834 9.93711 8.79248 12.1452 8.79248C14.3536 8.79248 16.1445 10.5834 16.1445 12.7917C16.1445 15 14.3536 16.791 12.1452 16.791Z" fill="#222222"/>
<path d="M19.9938 6.38291C19.9938 7.17775 19.3493 7.82222 18.5543 7.82222C17.7595 7.82222 17.115 7.17775 17.115 6.38291C17.115 5.58789 17.7595 4.9436 18.5543 4.9436C19.3493 4.9436 19.9938 5.58789 19.9938 6.38291Z" fill="#222222"/>
</g>
<defs>
<clipPath id="clip0_32_105">
<rect width="24" height="24" fill="white" transform="translate(0.100708 0.789551)"/>
</clipPath>
</defs>
</svg>
