<svg width="41" height="41" viewBox="0 0 41 41" fill="none" xmlns="http://www.w3.org/2000/svg">
<g clip-path="url(#clip0_32_249)">
<path d="M15.1558 28.7151H25.547C25.8706 28.7151 26.1329 28.4527 26.1329 28.1291C26.1329 27.8055 25.8706 27.5432 25.547 27.5432H15.1558C14.8322 27.5432 14.5699 27.8055 14.5699 28.1291C14.5699 28.4527 14.8322 28.7151 15.1558 28.7151ZM16.9918 15.2727H23.9482C24.4788 15.2727 24.9387 14.9316 25.0928 14.424L26.5528 9.61351C26.6639 9.24734 26.5969 8.86101 26.3689 8.55367C26.141 8.24632 25.7909 8.07007 25.4082 8.07007H24.8885L23.8265 5.41523C23.5824 4.80398 22.9994 4.40906 22.3411 4.40906H18.5989C17.9407 4.40906 17.3577 4.80398 17.1135 5.41492L16.0515 8.06999H15.5318C15.1492 8.06999 14.799 8.24625 14.571 8.55367C14.3431 8.86109 14.2761 9.24734 14.3872 9.61351L15.8473 14.424C16.0014 14.9316 16.4613 15.2727 16.9918 15.2727ZM15.5124 9.25164C15.53 9.22773 18.6994 9.2496 18.7221 9.24187C19.0456 9.24187 19.308 8.97953 19.308 8.65593C19.308 8.33234 19.0456 8.06999 18.7221 8.06999H17.3136L18.2016 5.85C18.2669 5.68656 18.4228 5.58093 18.5989 5.58093H22.3411C22.5172 5.58093 22.6731 5.68656 22.7385 5.85015L23.6264 8.06999H21.4564C21.1327 8.06999 20.8704 8.33234 20.8704 8.65593C20.8704 8.97953 21.1327 9.24187 21.4564 9.24187C21.476 9.24187 25.4127 9.2314 25.4277 9.25164C25.4451 9.27515 23.9714 14.059 23.9714 14.0837C23.9714 14.1357 16.9717 14.0939 16.9686 14.0837C16.9612 14.0591 15.4949 9.27507 15.5124 9.25164ZM15.1558 34.5604C14.8322 34.5604 14.5699 34.8227 14.5699 35.1463C14.5699 35.4699 14.8322 35.7323 15.1558 35.7323H25.547C25.8706 35.7323 26.1329 35.4699 26.1329 35.1463C26.1329 34.8227 25.8706 34.5604 25.547 34.5604H15.1558ZM30.8204 32.8026C30.8204 32.479 30.5581 32.2166 30.2345 32.2166H15.1558C14.8322 32.2166 14.5699 32.479 14.5699 32.8026C14.5699 33.1262 14.8322 33.3885 15.1558 33.3885H30.2345C30.5581 33.3885 30.8204 33.1262 30.8204 32.8026ZM33.7501 26.5423C34.0738 26.5423 34.336 26.28 34.336 25.9564V3.82312C34.336 2.20765 33.0218 0.893433 31.4064 0.893433H9.53369C7.91822 0.893433 6.604 2.20765 6.604 3.82312V37.9637C6.604 39.5792 7.91822 40.8934 9.53369 40.8934H31.4064C33.0219 40.8934 34.3361 39.5792 34.3361 37.9637V28.6908C34.3361 28.3672 34.0739 28.1048 33.7502 28.1048C33.4265 28.1048 33.1642 28.3672 33.1642 28.6908V37.9637C33.1642 38.933 32.3757 39.7216 31.4064 39.7216H9.53369C8.5644 39.7216 7.77588 38.933 7.77588 37.9637V3.82312C7.77588 2.85382 8.5644 2.06531 9.53369 2.06531H31.4064C32.3757 2.06531 33.1642 2.85382 33.1642 3.82312V25.9564C33.1642 26.28 33.4265 26.5423 33.7501 26.5423ZM12.8394 29.1644C12.5509 29.168 12.2483 29.1709 11.971 29.1723C12.168 28.9048 12.4172 28.5597 12.7279 28.1157C13.0004 27.7264 13.1932 27.374 13.2435 27.0078C13.2517 26.9478 13.2674 26.8401 13.2674 26.7828C13.2674 25.9098 12.5572 25.1995 11.6842 25.1995C10.9293 25.1995 10.276 25.7366 10.1306 26.4766C10.0682 26.7941 10.275 27.1021 10.5926 27.1644C10.9102 27.2268 11.2181 27.02 11.2805 26.7024C11.3181 26.5105 11.4879 26.3714 11.6842 26.3714C11.9012 26.3714 12.0796 26.5403 12.0946 26.7536C12.1094 26.9641 12.002 27.1092 11.7678 27.4437C11.1522 28.3234 10.7849 28.8042 10.5877 29.0625C10.2432 29.5135 10.0786 30.1013 10.6753 30.3002C10.7522 30.3258 12.2989 30.3433 12.8541 30.3362C13.1777 30.3322 13.4367 30.0666 13.4326 29.743C13.4285 29.4194 13.1602 29.1582 12.8394 29.1644ZM30.2345 25.1994H15.1558C14.8322 25.1994 14.5699 25.4618 14.5699 25.7854C14.5699 26.109 14.8322 26.3713 15.1558 26.3713H30.2345C30.5581 26.3713 30.8204 26.109 30.8204 25.7854C30.8204 25.4618 30.5581 25.1994 30.2345 25.1994ZM11.7761 32.2166C11.0213 32.2166 10.3679 32.7537 10.2225 33.4937C10.1602 33.8112 10.367 34.1192 10.6846 34.1816C11.0019 34.2438 11.31 34.0371 11.3724 33.7195C11.4101 33.5277 11.5799 33.3885 11.7761 33.3885C12.003 33.3885 12.1875 33.573 12.1875 33.7999C12.1875 34.0268 12.003 34.2113 11.7761 34.2113C11.4525 34.2113 11.1902 34.4737 11.1902 34.7973C11.1902 35.1209 11.4525 35.3832 11.7761 35.3832C12.003 35.3832 12.1875 35.5677 12.1875 35.7946C12.1875 36.0215 12.003 36.206 11.7761 36.206C11.572 36.206 11.3968 36.0541 11.3687 35.8524C11.366 35.8335 11.3647 35.8141 11.3647 35.7946C11.3647 35.471 11.1024 35.2087 10.7788 35.2087C10.4552 35.2087 10.1928 35.471 10.1928 35.7946C10.1928 36.6552 10.907 37.3779 11.7761 37.3779C12.6492 37.3779 13.3594 36.6677 13.3594 35.7946C13.3594 35.4168 13.226 35.0698 13.0042 34.7973C13.226 34.5248 13.3594 34.1777 13.3594 33.7999C13.3594 32.9269 12.6492 32.2166 11.7761 32.2166ZM11.7761 23.2823C12.0997 23.2823 12.3621 23.02 12.3621 22.6964V18.7987C12.3621 18.4752 12.0997 18.2128 11.7761 18.2128H10.943C10.6194 18.2128 10.3571 18.4752 10.3571 18.7987C10.3571 19.1223 10.6194 19.3847 10.943 19.3847H11.1902V22.6964C11.1902 23.02 11.4525 23.2823 11.7761 23.2823ZM15.1558 21.7284H25.547C25.8706 21.7284 26.1329 21.4661 26.1329 21.1425C26.1329 20.8189 25.8706 20.5566 25.547 20.5566H15.1558C14.8322 20.5566 14.5699 20.8189 14.5699 21.1425C14.5699 21.4661 14.8322 21.7284 15.1558 21.7284ZM30.2345 18.2128H15.1558C14.8322 18.2128 14.5699 18.4752 14.5699 18.7987C14.5699 19.1223 14.8322 19.3847 15.1558 19.3847H30.2345C30.5581 19.3847 30.8204 19.1223 30.8204 18.7987C30.8204 18.4752 30.5581 18.2128 30.2345 18.2128Z" fill="#09A66D"/>
</g>
<defs>
<clipPath id="clip0_32_249">
<rect width="40" height="40" fill="white" transform="translate(0.469727 0.893433)"/>
</clipPath>
</defs>
</svg>
