<svg width="32" height="32" viewBox="0 0 32 32" fill="none" xmlns="http://www.w3.org/2000/svg">
<g clip-path="url(#clip0_32_168)">
<path d="M16.0022 0C11.4308 0 7.69385 3.73694 7.69385 8.3084C7.69385 12.8799 11.4308 16.6168 16.0022 16.6168C20.5737 16.6168 24.3106 12.8799 24.3106 8.3084C24.3106 3.73694 20.5737 0 16.0022 0Z" fill="#09A66D"/>
<path d="M30.2608 23.2563C30.0431 22.7121 29.7528 22.2041 29.4263 21.7325C27.7574 19.2653 25.1815 17.6327 22.279 17.2336C21.9162 17.1973 21.5171 17.2698 21.2268 17.4875C19.703 18.6123 17.889 19.1927 16.0023 19.1927C14.1156 19.1927 12.3016 18.6123 10.7778 17.4875C10.4875 17.2698 10.0884 17.161 9.72562 17.2336C6.82312 17.6327 4.2109 19.2653 2.57826 21.7325C2.25173 22.2041 1.96145 22.7484 1.74381 23.2563C1.63499 23.474 1.67124 23.728 1.78006 23.9457C2.07034 24.4536 2.43312 24.9616 2.75965 25.3969C3.26756 26.0863 3.8118 26.703 4.42861 27.2835C4.93652 27.7914 5.51701 28.2631 6.09756 28.7348C8.96375 30.8754 12.4105 32 15.966 32C19.5216 32 22.9683 30.8753 25.8345 28.7348C26.415 28.2994 26.9955 27.7914 27.5035 27.2835C28.084 26.703 28.6644 26.0862 29.1724 25.3969C29.5352 24.9252 29.8618 24.4536 30.152 23.9457C30.3333 23.728 30.3696 23.4739 30.2608 23.2563Z" fill="#09A66D"/>
</g>
<defs>
<clipPath id="clip0_32_168">
<rect width="32" height="32" fill="white"/>
</clipPath>
</defs>
</svg>
